<?xml version="1.0" encoding="utf-8"?>
<!-- Generator: Adobe Illustrator 22.0.0, SVG Export Plug-In . SVG Version: 6.00 Build 0)  -->
<svg version="1.1" xmlns="http://www.w3.org/2000/svg" xmlns:xlink="http://www.w3.org/1999/xlink" x="0px" y="0px"
	 viewBox="0 0 1448.6 1146.2" style="enable-background:new 0 0 1448.6 1146.2;" xml:space="preserve">
<style type="text/css">
	.st0{fill:#3A48FF;}
	.st1{fill:#FF3B3A;}
	.st2{display:none;}
</style>
<g id="Layer_1">
	<g>
		<path d="M508.7,138.7L472,266.2h-29.9l-11.3-35.3l-4.5-29.2h-0.5l-4.9,29l-10.1,35.5h-29.9L344,138.7h33.5l15.1,61l3.2,27h0.9
			l3.1-26.8l14.2-44.6h24.5l13.1,44.8l4.1,26.6h0.5l3.6-26.6l15.5-61.4H508.7z"/>
		<path d="M518.8,266.2V138.7H551v127.4H518.8z"/>
		<path d="M630,266.2h-32.6v-97h-33.8v-30.6h100.3v30.6H630V266.2z"/>
		<path class="st0" d="M676.5,266.2V138.7h32.4V187h36.7v-48.2H778v127.4h-32.4v-48.1h-36.7v48.1H676.5z"/>
	</g>
	<g>
		<path d="M345.3,282.9c31.1,0,46.6,22.5,46.6,45c0,22.7-15.7,45.2-46.4,45.2h-18.9v37.3h-32.2V282.9H345.3z M345.3,313h-18.7v31.5
			h18.7C364.7,344.6,364.7,312.8,345.3,313z"/>
		<path d="M468.2,410.3l-8.3-25.6h-34l-7.9,25.6h-34.6l44.5-127.4h29.3l45.5,127.4H468.2z M443.4,318.9h-0.9l-9.4,37.3h19.1
			L443.4,318.9z"/>
		<path d="M565.2,372.5c0.4-7.2-11.3-11.3-21.8-12.8c-20.5-3.2-39.2-16.2-39.2-40.5c0-25,22.7-38.2,46.1-38.2
			c15.5,0,30.4,4.3,43.6,20.3l-21.1,16.2c-13.3-14.2-36.2-13.7-36.7,1.1c0.4,6.1,7,9.7,16.9,11.9c22.7,4.1,45.4,12.1,43.9,43.4
			c-1.1,24.7-27,38.2-50.4,38.2c-15.3,0-31.5-7.7-43.4-23l20.3-19.1C536.2,385.5,564.3,386.2,565.2,372.5z"/>
		<path d="M666.7,372.5c0.4-7.2-11.3-11.3-21.8-12.8c-20.5-3.2-39.2-16.2-39.2-40.5c0-25,22.7-38.2,46.1-38.2
			c15.5,0,30.4,4.3,43.6,20.3l-21.1,16.2c-13.3-14.2-36.2-13.7-36.7,1.1c0.4,6.1,7,9.7,16.9,11.9c22.7,4.1,45.4,12.1,43.9,43.4
			c-1.1,24.7-27,38.2-50.4,38.2c-15.3,0-31.5-7.7-43.4-23L625,370C637.8,385.5,665.8,386.2,666.7,372.5z"/>
		<path class="st0" d="M712.3,410.3V282.9h32.2v127.4H712.3z"/>
		<path d="M814.3,281.1c26.5,0,52.9,14.6,52.9,43.7v43.6c0,29.2-26.3,43.7-52.7,43.7s-52.9-14.6-52.9-43.7v-43.6
			C761.6,295.5,787.9,281.1,814.3,281.1z M814.5,382.2c10.3,0,20.5-4.7,20.5-13.9v-43.6c0-9.9-10.6-14.4-21.1-14.4
			c-10.1,0-20.2,5-20.2,14.4v43.6C793.8,377.7,804.3,382.2,814.5,382.2z"/>
		<path d="M915,282.9l30.8,54.4l10.8,25.6l0.9-0.2c-0.2,0-3.4-22-3.6-22v-57.8h32v127.4h-32.6l-28.8-50.2l-11.2-25.6l-0.9,0.2
			l4.1,24.7v50.9h-32.2V282.9H915z"/>
		<path d="M1128.8,380.3l23.9,29.9h-37.8l-8.6-10.3c-26.1,23-72.4,9.5-72.4-30.1c0-15.5,7-24.8,19.1-32c-22-23-2.9-56.9,28.4-56
			c18,0.5,34.6,13.1,34.6,33.1c0,14.6-6.5,23-15.5,29.3l10.6,13.1l11.5-9.9l18,23L1128.8,380.3z M1067.1,378.3
			c4.5,6.3,14.8,6.7,20.5,0l-15.7-18.4C1064,364.1,1063.1,372.9,1067.1,378.3z M1072.5,315.5c0,3.2,3.2,7,6.7,11.2
			c5.6-3.8,8.8-7,8.8-11.7c0-4.1-3.1-7.7-7-7.7C1076.4,307.2,1072.5,310.8,1072.5,315.5z"/>
	</g>
	<g>
		<path d="M336.3,572.3V444.9h32.4v48.2h36.7v-48.2h32.4v127.4h-32.4v-48.1h-36.7v48.1H336.3z"/>
		<path d="M542.2,494.9v27.9h-51.7v19.1h56.2v30.4H458V444.9h88.7v30.2h-56.2v19.8H542.2z"/>
		<path d="M637.5,572.3l-8.3-25.6h-34l-7.9,25.6h-34.6l44.5-127.4h29.3L672,572.3H637.5z M612.6,480.9h-0.9l-9.4,37.3h19.1
			L612.6,480.9z"/>
		<path class="st0" d="M713.1,531.8v40.5h-32.6V444.9h50.9c26.3,0,46.6,12.1,47.3,41.9c0,23.6-9.5,36.9-25,41.8l34.7,43.7h-40.1
			l-29.5-40.5H713.1z M732,475h-18.9v29.2H732C752.3,504.1,752.3,475,732,475z"/>
		<path d="M853.3,572.3h-32.6v-97h-33.8v-30.6h100.3v30.6h-33.8V572.3z"/>
		<path d="M1010.4,498.4v30.1h-49.1v43.9h-32.6V444.9h88.7v30.6h-56.2v22.9H1010.4z"/>
		<path d="M1082.1,443.1c26.5,0,52.9,14.6,52.9,43.7v43.6c0,29.2-26.3,43.7-52.7,43.7s-52.9-14.6-52.9-43.7v-43.6
			C1029.3,457.5,1055.6,443.1,1082.1,443.1z M1082.2,544.3c10.3,0,20.5-4.7,20.5-13.9v-43.6c0-9.9-10.6-14.4-21.1-14.4
			c-10.1,0-20.2,5-20.2,14.4v43.6C1061.5,539.8,1072,544.3,1082.2,544.3z"/>
		<path d="M1184.7,531.8v40.5h-32.6V444.9h50.9c26.3,0,46.6,12.1,47.3,41.9c0,23.6-9.5,36.9-25,41.8l34.7,43.7h-40.1l-29.5-40.5
			H1184.7z M1203.6,475h-18.9v29.2h18.9C1223.9,504.1,1223.9,475,1203.6,475z"/>
	</g>
	<g>
		<path d="M398.5,727.2c-25,0-50.2-14.6-50.2-43.6v-43.9c0-28.8,25.2-43.6,50.8-43.6c15.7,0,34.6,6.7,44.8,29.3l-26.3,10.6
			c-8.6-15.8-37.1-12.2-37.1,3.6v43.9c0,15.3,28.8,19.6,35.8,2l28.1,13C433.8,719.2,414.5,727.2,398.5,727.2z"/>
		<path d="M505.8,596.1c26.5,0,52.9,14.6,52.9,43.7v43.6c0,29.2-26.3,43.7-52.7,43.7c-26.5,0-52.9-14.6-52.9-43.7v-43.6
			C453,610.5,479.3,596.1,505.8,596.1z M505.9,697.3c10.3,0,20.5-4.7,20.5-13.9v-43.6c0-9.9-10.6-14.4-21.1-14.4
			c-10.1,0-20.2,5-20.2,14.4v43.6C485.2,692.8,495.7,697.3,505.9,697.3z"/>
		<path d="M673,640.6v42.8c0,29.3-23.9,42.1-49.5,41.9h-47.7V597.9h47.7C649,597.9,673,610.9,673,640.6z M640.6,681.3v-39.8
			c0-8.3-5.2-13.5-16-13.5h-16.4v67.1h16.4C635.5,695.1,640.6,689.5,640.6,681.3z"/>
		<path class="st0" d="M774.5,648v27.9h-51.7v19.1H779v30.4h-88.7V597.9H779v30.2h-56.2V648H774.5z"/>
	</g>
	<g>
		<path class="st1" d="M709.5,744.9l26.8,62.3l27-62.3h32.2v127.4h-32.4l0.2-36.7l2-25.7l-1.1-0.2l-16.7,43.7h-22.1l-17.1-43.7
			l-0.9,0.2l2.2,25.7v36.7h-32.2V744.9H709.5z"/>
		<path d="M865.4,743.1c26.5,0,52.9,14.6,52.9,43.7v43.6c0,29.2-26.3,43.7-52.7,43.7s-52.9-14.6-52.9-43.7v-43.6
			C812.7,757.5,839,743.1,865.4,743.1z M865.6,844.3c10.3,0,20.5-4.7,20.5-13.9v-43.6c0-9.9-10.6-14.4-21.1-14.4
			c-10.1,0-20.2,5-20.2,14.4v43.6C844.9,839.8,855.3,844.3,865.6,844.3z"/>
		<path d="M991.4,834.6c0.4-7.2-11.3-11.3-21.8-12.8c-20.5-3.2-39.2-16.2-39.2-40.5c0-25,22.7-38.2,46.1-38.2
			c15.5,0,30.4,4.3,43.6,20.3L999,779.7c-13.3-14.2-36.2-13.7-36.7,1.1c0.4,6.1,7,9.7,16.9,11.9c22.7,4.1,45.4,12.1,43.9,43.4
			c-1.1,24.7-27,38.2-50.4,38.2c-15.3,0-31.5-7.7-43.4-23l20.3-19.1C962.4,847.5,990.5,848.2,991.4,834.6z"/>
		<path d="M1092.9,834.6c0.4-7.2-11.3-11.3-21.8-12.8c-20.5-3.2-39.2-16.2-39.2-40.5c0-25,22.7-38.2,46.1-38.2
			c15.5,0,30.4,4.3,43.6,20.3l-21.1,16.2c-13.3-14.2-36.2-13.7-36.7,1.1c0.4,6.1,7,9.7,16.9,11.9c22.7,4.1,45.4,12.1,43.9,43.4
			c-1.1,24.7-27,38.2-50.4,38.2c-15.3,0-31.5-7.7-43.4-23l20.3-19.1C1064,847.5,1092,848.2,1092.9,834.6z"/>
		<path d="M1209.9,872.4l-8.3-25.6h-34l-7.9,25.6h-34.6l44.5-127.4h29.3l45.5,127.4H1209.9z M1185.1,780.9h-0.9l-9.4,37.3h19.1
			L1185.1,780.9z"/>
	</g>
	<g>
		<path d="M164.6,948v27.9h-51.7V995h56.2v30.4H80.4V897.9h88.7v30.2h-56.2V948H164.6z"/>
		<path d="M218.4,897.9l26.8,62.3l27-62.3h32.2v127.4H272l0.2-36.7l2-25.7l-1.1-0.2l-16.7,43.7h-22.1l-17.1-43.7l-0.9,0.2l2.2,25.7
			v36.7h-32.2V897.9H218.4z"/>
		<path d="M398.2,1025.4l-8.3-25.6h-34l-7.9,25.6h-34.6l44.5-127.4h29.3l45.5,127.4H398.2z M373.4,933.9h-0.9l-9.4,37.3h19.1
			L373.4,933.9z"/>
		<path d="M471.8,897.9l30.8,54.4l10.8,25.6l0.9-0.2c-0.2,0-3.4-22-3.6-22v-57.8h32v127.4h-32.6l-28.8-50.2l-11.2-25.6l-0.9,0.2
			l4.1,24.7v50.9h-32.2V897.9H471.8z"/>
		<path d="M631.3,982.7v-84.8h32.6v84.8c-0.2,59.8-101.9,59.8-101.7,0v-84.8h32.6v84.8C594.8,1003.2,631.1,1003.2,631.3,982.7z"/>
		<path class="st1" d="M767.2,948v27.9h-51.7V995h56.2v30.4H683V897.9h88.7v30.2h-56.2V948H767.2z"/>
		<path d="M821.2,897.9v95.6h51.8v31.9h-84.2V897.9H821.2z"/>
		<path d="M970.1,948v27.9h-51.7V995h56.2v30.4h-88.7V897.9h88.7v30.2h-56.2V948H970.1z"/>
	</g>
</g>
<g id="Layer_2" class="st2">
</g>
</svg>
