<?xml version="1.0" encoding="utf-8"?>
<!-- Generator: Adobe Illustrator 22.0.0, SVG Export Plug-In . SVG Version: 6.00 Build 0)  -->
<svg version="1.1" id="Layer_1" xmlns="http://www.w3.org/2000/svg" xmlns:xlink="http://www.w3.org/1999/xlink" x="0px" y="0px"
	 viewBox="0 0 1920 1080" style="enable-background:new 0 0 1920 1080;" xml:space="preserve">
<style type="text/css">
	.st0{fill:#3A48FF;}
	.st1{fill:#FF3B3A;}
</style>
<g>
	<path d="M743.2,73.2l-36.7,127.4h-29.9l-11.3-35.3l-4.5-29.2h-0.5l-4.9,29l-10.1,35.5h-29.9L578.5,73.2H612l15.1,61l3.2,27h0.9
		l3.1-26.8l14.2-44.6H673l13.1,44.8l4.1,26.6h0.5l3.6-26.6l15.5-61.4H743.2z"/>
	<path d="M753.3,200.6V73.2h32.2v127.4H753.3z"/>
	<path d="M864.5,200.6H832v-97h-33.8V73h100.3v30.6h-33.8V200.6z"/>
	<path class="st0" d="M911,200.6V73.2h32.4v48.2h36.7V73.2h32.4v127.4h-32.4v-48.1h-36.7v48.1H911z"/>
</g>
<g>
	<path d="M579.8,217.4c31.1,0,46.6,22.5,46.6,45c0,22.7-15.7,45.2-46.4,45.2h-18.9v37.3h-32.2V217.4H579.8z M579.8,247.4h-18.7v31.5
		h18.7C599.2,279.1,599.2,247.2,579.8,247.4z"/>
	<path d="M702.7,344.8l-8.3-25.6h-34l-7.9,25.6h-34.6l44.5-127.4h29.3l45.5,127.4H702.7z M677.9,253.4H677l-9.4,37.3h19.1
		L677.9,253.4z"/>
	<path d="M799.7,307c0.4-7.2-11.3-11.3-21.8-12.8c-20.5-3.2-39.2-16.2-39.2-40.5c0-25,22.7-38.2,46.1-38.2
		c15.5,0,30.4,4.3,43.6,20.3l-21.1,16.2c-13.3-14.2-36.2-13.7-36.7,1.1c0.4,6.1,7,9.7,16.9,11.9c22.7,4.1,45.4,12.1,43.9,43.4
		c-1.1,24.7-27,38.2-50.4,38.2c-15.3,0-31.5-7.7-43.4-23l20.3-19.1C770.8,320,798.8,320.7,799.7,307z"/>
	<path d="M901.3,307c0.4-7.2-11.3-11.3-21.8-12.8c-20.5-3.2-39.2-16.2-39.2-40.5c0-25,22.7-38.2,46.1-38.2
		c15.5,0,30.4,4.3,43.6,20.3l-21.1,16.2c-13.3-14.2-36.2-13.7-36.7,1.1c0.4,6.1,7,9.7,16.9,11.9c22.7,4.1,45.4,12.1,43.9,43.4
		c-1.1,24.7-27,38.2-50.4,38.2c-15.3,0-31.5-7.7-43.4-23l20.3-19.1C872.3,320,900.4,320.7,901.3,307z"/>
	<path class="st0" d="M946.8,344.8V217.4H979v127.4H946.8z"/>
	<path d="M1048.9,215.6c26.5,0,52.9,14.6,52.9,43.7v43.6c0,29.2-26.3,43.7-52.7,43.7s-52.9-14.6-52.9-43.7v-43.6
		C996.1,230,1022.4,215.6,1048.9,215.6z M1049,316.7c10.3,0,20.5-4.7,20.5-13.9v-43.6c0-9.9-10.6-14.4-21.1-14.4
		c-10.1,0-20.2,5-20.2,14.4v43.6C1028.3,312.2,1038.8,316.7,1049,316.7z"/>
	<path d="M1149.5,217.4l30.8,54.4l10.8,25.6l0.9-0.2c-0.2,0-3.4-22-3.6-22v-57.8h32v127.4h-32.6l-28.8-50.2l-11.2-25.6l-0.9,0.2
		l4.1,24.7v50.9h-32.2V217.4H1149.5z"/>
	<path d="M1363.3,314.7l23.9,29.9h-37.8l-8.6-10.3c-26.1,23-72.4,9.5-72.4-30.1c0-15.5,7-24.8,19.1-32c-22-23-2.9-56.9,28.4-56
		c18,0.5,34.6,13.1,34.6,33.1c0,14.6-6.5,23-15.5,29.3l10.6,13.1l11.5-9.9l18,23L1363.3,314.7z M1301.6,312.8
		c4.5,6.3,14.8,6.7,20.5,0l-15.7-18.4C1298.5,298.5,1297.6,307.4,1301.6,312.8z M1307,249.9c0,3.2,3.2,7,6.7,11.2
		c5.6-3.8,8.8-7,8.8-11.7c0-4.1-3.1-7.7-7-7.7C1310.9,241.7,1307,245.3,1307,249.9z"/>
</g>
<g>
	<path d="M570.9,506.8V379.4h32.4v48.2H640v-48.2h32.4v127.4H640v-48.1h-36.7v48.1H570.9z"/>
	<path d="M776.8,429.4v27.9h-51.7v19.1h56.2v30.4h-88.7V379.4h88.7v30.2h-56.2v19.8H776.8z"/>
	<path d="M872,506.8l-8.3-25.6h-34l-7.9,25.6h-34.6l44.5-127.4H861l45.5,127.4H872z M847.1,415.4h-0.9l-9.4,37.3H856L847.1,415.4z"
		/>
	<path class="st0" d="M947.6,466.3v40.5H915V379.4h50.9c26.3,0,46.6,12.1,47.3,41.9c0,23.6-9.5,36.9-25,41.8l34.7,43.7h-40.1
		l-29.5-40.5H947.6z M966.5,409.4h-18.9v29.2h18.9C986.8,438.6,986.8,409.4,966.5,409.4z"/>
	<path d="M1087.8,506.8h-32.6v-97h-33.8v-30.6h100.3v30.6h-33.8V506.8z"/>
	<path d="M1244.9,432.8v30.1h-49.1v43.9h-32.6V379.4h88.7V410h-56.2v22.9H1244.9z"/>
	<path d="M1316.6,377.6c26.5,0,52.9,14.6,52.9,43.7v43.6c0,29.2-26.3,43.7-52.7,43.7s-52.9-14.6-52.9-43.7v-43.6
		C1263.8,392,1290.1,377.6,1316.6,377.6z M1316.8,478.7c10.3,0,20.5-4.7,20.5-13.9v-43.6c0-9.9-10.6-14.4-21.1-14.4
		c-10.1,0-20.2,5-20.2,14.4v43.6C1296.1,474.2,1306.5,478.7,1316.8,478.7z"/>
	<path d="M1419.2,466.3v40.5h-32.6V379.4h50.9c26.3,0,46.6,12.1,47.3,41.9c0,23.6-9.5,36.9-25,41.8l34.7,43.7h-40.1l-29.5-40.5
		H1419.2z M1438.1,409.4h-18.9v29.2h18.9C1458.4,438.6,1458.4,409.4,1438.1,409.4z"/>
</g>
<g>
	<path d="M633,661.6c-25,0-50.2-14.6-50.2-43.6v-43.9c0-28.8,25.2-43.6,50.8-43.6c15.7,0,34.6,6.7,44.8,29.3l-26.3,10.6
		c-8.6-15.8-37.1-12.2-37.1,3.6v43.9c0,15.3,28.8,19.6,35.8,2l28.1,13C668.3,653.7,649,661.6,633,661.6z"/>
	<path d="M740.3,530.6c26.5,0,52.9,14.6,52.9,43.7v43.6c0,29.2-26.3,43.7-52.7,43.7s-52.9-14.6-52.9-43.7v-43.6
		C687.5,545,713.8,530.6,740.3,530.6z M740.5,631.8c10.3,0,20.5-4.7,20.5-13.9v-43.6c0-9.9-10.6-14.4-21.1-14.4
		c-10.1,0-20.2,5-20.2,14.4v43.6C719.8,627.3,730.2,631.8,740.5,631.8z"/>
	<path d="M907.5,575.1v42.8c0,29.3-23.9,42.1-49.5,41.9h-47.7V532.4H858C883.6,532.4,907.5,545.4,907.5,575.1z M875.1,615.7V576
		c0-8.3-5.2-13.5-16-13.5h-16.4v67.1h16.4C870.1,629.6,875.1,624,875.1,615.7z"/>
	<path class="st0" d="M1009,582.4v27.9h-51.7v19.1h56.2v30.4h-88.7V532.4h88.7v30.2h-56.2v19.8H1009z"/>
</g>
<g>
	<path class="st1" d="M816.1,679.4l26.8,62.3l27-62.3h32.2v127.4h-32.4l0.2-36.7l2-25.7l-1.1-0.2l-16.7,43.7h-22.1l-17.1-43.7
		l-0.9,0.2l2.2,25.7v36.7h-32.2V679.4H816.1z"/>
	<path d="M972,677.6c26.5,0,52.9,14.6,52.9,43.7v43.6c0,29.2-26.3,43.7-52.7,43.7s-52.9-14.6-52.9-43.7v-43.6
		C919.2,692,945.5,677.6,972,677.6z M972.1,778.8c10.3,0,20.5-4.7,20.5-13.9v-43.6c0-9.9-10.6-14.4-21.1-14.4
		c-10.1,0-20.2,5-20.2,14.4v43.6C951.4,774.3,961.9,778.8,972.1,778.8z"/>
	<path d="M1098,769c0.4-7.2-11.3-11.3-21.8-12.8c-20.5-3.2-39.2-16.2-39.2-40.5c0-25,22.7-38.2,46.1-38.2c15.5,0,30.4,4.3,43.6,20.3
		l-21.1,16.2c-13.3-14.2-36.2-13.7-36.7,1.1c0.4,6.1,7,9.7,16.9,11.9c22.7,4.1,45.4,12.1,43.9,43.4c-1.1,24.7-27,38.2-50.4,38.2
		c-15.3,0-31.5-7.7-43.4-23l20.3-19.1C1069,782,1097.1,782.7,1098,769z"/>
	<path d="M1199.5,769c0.4-7.2-11.3-11.3-21.8-12.8c-20.5-3.2-39.2-16.2-39.2-40.5c0-25,22.7-38.2,46.1-38.2
		c15.5,0,30.4,4.3,43.6,20.3l-21.1,16.2c-13.3-14.2-36.2-13.7-36.7,1.1c0.4,6.1,7,9.7,16.9,11.9c22.7,4.1,45.4,12.1,43.9,43.4
		c-1.1,24.7-27,38.2-50.4,38.2c-15.3,0-31.5-7.7-43.4-23l20.3-19.1C1170.5,782,1198.6,782.7,1199.5,769z"/>
	<path d="M1316.5,806.8l-8.3-25.6h-34l-7.9,25.6h-34.6l44.5-127.4h29.3l45.5,127.4H1316.5z M1291.6,715.4h-0.9l-9.4,37.3h19.1
		L1291.6,715.4z"/>
</g>
<g>
	<path d="M271.1,882.5v27.9h-51.7v19.1h56.2v30.4h-88.7V832.4h88.7v30.2h-56.2v19.8H271.1z"/>
	<path d="M324.9,832.4l26.8,62.3l27-62.3H411v127.4h-32.4l0.2-36.7l2-25.7l-1.1-0.2L362.9,941h-22.1l-17.1-43.7l-0.9,0.2l2.2,25.7
		v36.7h-32.2V832.4H324.9z"/>
	<path d="M504.8,959.9l-8.3-25.6h-34l-7.9,25.6H420l44.5-127.4h29.3l45.5,127.4H504.8z M479.9,868.4H479l-9.4,37.3h19.1L479.9,868.4
		z"/>
	<path d="M578.4,832.4l30.8,54.4l10.8,25.6l0.9-0.2c-0.2,0-3.4-22-3.6-22v-57.8h32v127.4h-32.6l-28.8-50.2l-11.2-25.6l-0.9,0.2
		l4.1,24.7v50.9h-32.2V832.4H578.4z"/>
	<path d="M737.9,917.2v-84.8h32.6v84.8c-0.2,59.8-101.9,59.8-101.7,0v-84.8h32.6v84.8C701.3,937.7,737.7,937.7,737.9,917.2z"/>
	<path class="st1" d="M873.8,882.5v27.9h-51.7v19.1h56.2v30.4h-88.7V832.4h88.7v30.2h-56.2v19.8H873.8z"/>
	<path d="M927.8,832.4V928h51.8v31.9h-84.2V832.4H927.8z"/>
	<path d="M1076.6,882.5v27.9H1025v19.1h56.2v30.4h-88.7V832.4h88.7v30.2H1025v19.8H1076.6z"/>
</g>
</svg>
